<svg id="visual" viewBox="0 0 1920 1080" width="1920" height="1080" xmlns="http://www.w3.org/2000/svg" xmlns:xlink="http://www.w3.org/1999/xlink" version="1.1"><rect x="0" y="0" width="1920" height="1080" fill="#40229b"></rect><defs><linearGradient id="grad1_0" x1="43.8%" y1="0%" x2="100%" y2="100%"><stop offset="14.444444444444446%" stop-color="#5322e3" stop-opacity="1"></stop><stop offset="85.55555555555554%" stop-color="#5322e3" stop-opacity="1"></stop></linearGradient></defs><defs><linearGradient id="grad1_1" x1="43.8%" y1="0%" x2="100%" y2="100%"><stop offset="14.444444444444446%" stop-color="#5322e3" stop-opacity="1"></stop><stop offset="85.55555555555554%" stop-color="#4e23d1" stop-opacity="1"></stop></linearGradient></defs><defs><linearGradient id="grad1_2" x1="43.8%" y1="0%" x2="100%" y2="100%"><stop offset="14.444444444444446%" stop-color="#4923be" stop-opacity="1"></stop><stop offset="85.55555555555554%" stop-color="#4e23d1" stop-opacity="1"></stop></linearGradient></defs><defs><linearGradient id="grad1_3" x1="43.8%" y1="0%" x2="100%" y2="100%"><stop offset="14.444444444444446%" stop-color="#4923be" stop-opacity="1"></stop><stop offset="85.55555555555554%" stop-color="#4523ad" stop-opacity="1"></stop></linearGradient></defs><defs><linearGradient id="grad1_4" x1="43.8%" y1="0%" x2="100%" y2="100%"><stop offset="14.444444444444446%" stop-color="#40229b" stop-opacity="1"></stop><stop offset="85.55555555555554%" stop-color="#4523ad" stop-opacity="1"></stop></linearGradient></defs><defs><linearGradient id="grad2_0" x1="0%" y1="0%" x2="56.3%" y2="100%"><stop offset="14.444444444444446%" stop-color="#5322e3" stop-opacity="1"></stop><stop offset="85.55555555555554%" stop-color="#5322e3" stop-opacity="1"></stop></linearGradient></defs><defs><linearGradient id="grad2_1" x1="0%" y1="0%" x2="56.3%" y2="100%"><stop offset="14.444444444444446%" stop-color="#4e23d1" stop-opacity="1"></stop><stop offset="85.55555555555554%" stop-color="#5322e3" stop-opacity="1"></stop></linearGradient></defs><defs><linearGradient id="grad2_2" x1="0%" y1="0%" x2="56.3%" y2="100%"><stop offset="14.444444444444446%" stop-color="#4e23d1" stop-opacity="1"></stop><stop offset="85.55555555555554%" stop-color="#4923be" stop-opacity="1"></stop></linearGradient></defs><defs><linearGradient id="grad2_3" x1="0%" y1="0%" x2="56.3%" y2="100%"><stop offset="14.444444444444446%" stop-color="#4523ad" stop-opacity="1"></stop><stop offset="85.55555555555554%" stop-color="#4923be" stop-opacity="1"></stop></linearGradient></defs><defs><linearGradient id="grad2_4" x1="0%" y1="0%" x2="56.3%" y2="100%"><stop offset="14.444444444444446%" stop-color="#4523ad" stop-opacity="1"></stop><stop offset="85.55555555555554%" stop-color="#40229b" stop-opacity="1"></stop></linearGradient></defs><g transform="translate(1920, 0)"><path d="M0 972C-141.8 974.9 -283.6 977.8 -372 898C-460.3 818.2 -495.1 655.6 -549.4 549.4C-603.7 443.2 -677.4 393.3 -751.1 311.1C-824.8 228.9 -898.4 114.5 -972 0L0 0Z" fill="#4222a4"></path><path d="M0 777.6C-113.5 779.9 -226.9 782.3 -297.6 718.4C-368.2 654.6 -396.1 524.5 -439.5 439.5C-483 354.6 -542 314.6 -600.9 248.9C-659.8 183.2 -718.7 91.6 -777.6 0L0 0Z" fill="#4723b6"></path><path d="M0 583.2C-85.1 584.9 -170.2 586.7 -223.2 538.8C-276.2 490.9 -297.1 393.4 -329.7 329.7C-362.2 265.9 -406.5 236 -450.7 186.7C-494.9 137.4 -539 68.7 -583.2 0L0 0Z" fill="#4c23c8"></path><path d="M0 388.8C-56.7 390 -113.5 391.1 -148.8 359.2C-184.1 327.3 -198.1 262.3 -219.8 219.8C-241.5 177.3 -271 157.3 -300.4 124.4C-329.9 91.6 -359.4 45.8 -388.8 0L0 0Z" fill="#5122da"></path><path d="M0 194.4C-28.4 195 -56.7 195.6 -74.4 179.6C-92.1 163.6 -99 131.1 -109.9 109.9C-120.7 88.6 -135.5 78.7 -150.2 62.2C-165 45.8 -179.7 22.9 -194.4 0L0 0Z" fill="#5322e3"></path></g><g transform="translate(0, 1080)"><path d="M0 -972C127.4 -935.4 254.9 -898.9 342.9 -827.8C430.9 -756.7 479.4 -651.2 577.7 -577.7C676 -504.2 824 -462.9 898 -372C972 -281 972 -140.5 972 0L0 0Z" fill="#4222a4"></path><path d="M0 -777.6C102 -748.3 203.9 -719.1 274.3 -662.2C344.7 -605.4 383.5 -520.9 462.2 -462.2C540.8 -403.4 659.2 -370.3 718.4 -297.6C777.6 -224.8 777.6 -112.4 777.6 0L0 0Z" fill="#4723b6"></path><path d="M0 -583.2C76.5 -561.3 152.9 -539.3 205.7 -496.7C258.5 -454 287.7 -390.7 346.6 -346.6C405.6 -302.5 494.4 -277.7 538.8 -223.2C583.2 -168.6 583.2 -84.3 583.2 0L0 0Z" fill="#4c23c8"></path><path d="M0 -388.8C51 -374.2 102 -359.5 137.2 -331.1C172.4 -302.7 191.8 -260.5 231.1 -231.1C270.4 -201.7 329.6 -185.2 359.2 -148.8C388.8 -112.4 388.8 -56.2 388.8 0L0 0Z" fill="#5122da"></path><path d="M0 -194.4C25.5 -187.1 51 -179.8 68.6 -165.6C86.2 -151.3 95.9 -130.2 115.5 -115.5C135.2 -100.8 164.8 -92.6 179.6 -74.4C194.4 -56.2 194.4 -28.1 194.4 0L0 0Z" fill="#5322e3"></path></g></svg>